<svg width="94" height="75" viewBox="0 0 94 75" fill="none" xmlns="http://www.w3.org/2000/svg">
<g clip-path="url(#clip0)">
<path d="M0 32.8125V72.6563C0 73.9512 1.04883 75 2.34375 75H14.0625V28.125H4.6875C2.09912 28.125 0 30.2241 0 32.8125ZM52.7344 25.7813H49.2188V19.9219C49.2188 19.2744 48.6943 18.75 48.0469 18.75H45.7031C45.0557 18.75 44.5312 19.2744 44.5312 19.9219V29.2969C44.5312 29.9443 45.0557 30.4688 45.7031 30.4688H52.7344C53.3818 30.4688 53.9062 29.9443 53.9062 29.2969V26.9531C53.9062 26.3057 53.3818 25.7813 52.7344 25.7813ZM72.9126 16.4121L49.4751 0.786634C48.705 0.273692 47.8003 0 46.875 0C45.9497 0 45.045 0.273692 44.2749 0.786634L20.8374 16.4121C20.1954 16.8401 19.669 17.4199 19.3049 18.1002C18.9408 18.7804 18.7502 19.54 18.75 20.3115V75H37.5V53.9063C37.5 52.6113 38.5488 51.5625 39.8438 51.5625H53.9062C55.2012 51.5625 56.25 52.6113 56.25 53.9063V75H75V20.313C75 18.7456 74.2163 17.2808 72.9126 16.4121ZM46.875 37.5C40.4033 37.5 35.1562 32.2529 35.1562 25.7813C35.1562 19.3096 40.4033 14.0625 46.875 14.0625C53.3467 14.0625 58.5938 19.3096 58.5938 25.7813C58.5938 32.2529 53.3467 37.5 46.875 37.5ZM89.0625 28.125H79.6875V75H91.4062C92.7012 75 93.75 73.9512 93.75 72.6563V32.8125C93.75 30.2241 91.6509 28.125 89.0625 28.125Z" fill="white"/>
</g>
<defs>
<clipPath id="clip0">
<rect width="93.75" height="75" fill="white"/>
</clipPath>
</defs>
</svg>
