<svg width="75" height="66" viewBox="0 0 75 66" fill="none" xmlns="http://www.w3.org/2000/svg">
<path d="M37.5049 0C16.7947 0 0.00972064 13.6359 0.00972064 30.4648C0.00972064 37.4366 2.92438 43.8224 7.75774 48.9634C5.57541 54.7341 1.03498 59.6261 0.961746 59.6847C-0.0049259 60.7099 -0.268564 62.2039 0.288005 63.4928C0.844573 64.7816 2.11882 65.6165 3.52489 65.6165C12.5325 65.6165 19.6361 61.8523 23.8982 58.8352C28.1311 60.168 32.7008 60.9296 37.5049 60.9296C58.2151 60.9296 75 47.2937 75 30.4648C75 13.6359 58.2151 0 37.5049 0ZM37.5049 53.8993C33.5942 53.8993 29.7276 53.2988 26.022 52.127L22.6972 51.0725L19.8411 53.0937C17.7467 54.573 14.876 56.2281 11.4194 57.3412C12.4886 55.569 13.5285 53.577 14.334 51.4533L15.8866 47.3376L12.8694 44.1447C10.2184 41.3179 7.04006 36.6456 7.04006 30.4648C7.04006 17.5466 20.7053 7.03034 37.5049 7.03034C54.3044 7.03034 67.9697 17.5466 67.9697 30.4648C67.9697 43.3831 54.3044 53.8993 37.5049 53.8993Z" fill="#B5D573"/>
</svg>
